<svg xmlns="http://www.w3.org/2000/svg" width="12" height="12" viewBox="0 0 12 12" fill="none">
    <path d="M6.99558 1.06205C7.02311 0.841796 6.90215 0.629762 6.69854 0.541377C6.49493 0.452993 6.25743 0.509419 6.11533 0.679936L1.6506 6.03761C1.57344 6.13017 1.49529 6.22391 1.43839 6.30629C1.38458 6.38421 1.28632 6.53739 1.28329 6.73872C1.27981 6.96921 1.38252 7.18849 1.56181 7.33337C1.71841 7.45992 1.899 7.48251 1.9933 7.49105C2.09301 7.50008 2.21506 7.50005 2.33555 7.50003L5.43305 7.50003L5.0033 10.938C4.97577 11.1583 5.09674 11.3703 5.30035 11.4587C5.50395 11.5471 5.74146 11.4906 5.88355 11.3201L10.3483 5.96245C10.4254 5.86989 10.5036 5.77615 10.5605 5.69376C10.6143 5.61585 10.7126 5.46266 10.7156 5.26134C10.7191 5.03085 10.6164 4.81157 10.4371 4.66669C10.2805 4.54013 10.0999 4.51755 10.0056 4.50901C9.90587 4.49998 9.78382 4.5 9.66332 4.50003L6.56583 4.50003L6.99558 1.06205Z" fill="#4E75FF"/>
</svg>