<svg xmlns="http://www.w3.org/2000/svg" width="12" height="12" viewBox="0 0 12 12" fill="none">
    <path fill-rule="evenodd" clip-rule="evenodd" d="M8.19134 1.20549C8.06348 1.07762 7.94469 0.958804 7.83858 0.870351C7.72756 0.777803 7.57857 0.672747 7.38359 0.63322C7.12532 0.580863 6.85681 0.632572 6.63646 0.777104C6.4701 0.88622 6.37079 1.03909 6.30208 1.16625C6.23641 1.28779 6.17024 1.44222 6.09902 1.60843L5.55671 2.87383C5.54454 2.90224 5.53857 2.91608 5.53402 2.92608L5.5337 2.92676L5.53319 2.9273C5.5256 2.93525 5.51496 2.94593 5.4931 2.96778L4.71266 3.74823C4.67851 3.78237 4.66164 3.79915 4.64898 3.81096L4.64808 3.8118L4.64688 3.81208C4.63003 3.81607 4.60671 3.8208 4.55936 3.83027L2.70593 4.20095C2.48609 4.24491 2.28839 4.28443 2.13321 4.33053C1.97791 4.37667 1.7773 4.45254 1.62558 4.62352C1.43152 4.84224 1.3429 5.13493 1.38305 5.42455C1.41444 5.65098 1.53927 5.82539 1.6429 5.94992C1.74645 6.07436 1.88901 6.2169 2.04755 6.37542L3.4807 7.80857L1.00582 10.2834C0.810559 10.4787 0.81056 10.7953 1.00582 10.9906C1.20108 11.1858 1.51767 11.1858 1.71293 10.9906L4.1878 8.51567L5.621 9.94887C5.77952 10.1074 5.92206 10.25 6.0465 10.3535C6.17103 10.4571 6.34544 10.582 6.57187 10.6134C6.86149 10.6535 7.15418 10.5649 7.37289 10.3708C7.54388 10.2191 7.61975 10.0185 7.66589 9.86321C7.71199 9.70802 7.75151 9.51034 7.79546 9.29049L8.16615 7.43706C8.17562 7.3897 8.18035 7.36639 8.18434 7.34954L8.18462 7.34834L8.18546 7.34744C8.19727 7.33478 8.21405 7.31791 8.24819 7.28376L9.02864 6.50332C9.05049 6.48146 9.06117 6.47082 9.06912 6.46323L9.06966 6.46271L9.07034 6.4624C9.08033 6.45785 9.09418 6.45188 9.12259 6.43971L10.388 5.8974C10.5542 5.82618 10.7086 5.76001 10.8302 5.69434C10.9573 5.62563 11.1102 5.52632 11.2193 5.35996C11.3638 5.1396 11.4156 4.8711 11.3632 4.61283C11.3237 4.41784 11.2186 4.26886 11.1261 4.15784C11.0376 4.05173 10.9188 3.93293 10.7909 3.80508L8.19134 1.20549Z" fill="#F89E17"/>
</svg>