<svg xmlns="http://www.w3.org/2000/svg" width="12" height="12" viewBox="0 0 12 12" fill="none">
    <path d="M6.32279 0.889419C6.11862 0.792069 5.88141 0.792069 5.67723 0.889419C5.50072 0.973576 5.4034 1.1197 5.35433 1.19986C5.30359 1.28273 5.25151 1.38829 5.20075 1.49118L4.12288 3.67483L1.71185 4.02723C1.59836 4.0438 1.48191 4.06079 1.38745 4.08351C1.29607 4.10548 1.12711 4.15301 0.992657 4.29493C0.837112 4.45911 0.76396 4.68472 0.793571 4.90894C0.819166 5.10275 0.928088 5.24038 0.989188 5.31179C1.05235 5.38561 1.13667 5.46771 1.21885 5.54772L2.96275 7.24628L2.55127 9.64541C2.53184 9.75853 2.51192 9.87458 2.50424 9.97147C2.49682 10.0652 2.48965 10.2406 2.583 10.4125C2.69098 10.6113 2.88292 10.7507 3.10535 10.7919C3.29766 10.8276 3.4623 10.7665 3.54912 10.7305C3.63889 10.6933 3.7431 10.6384 3.84468 10.585L6.00001 9.45152L8.15535 10.585C8.25693 10.6384 8.36114 10.6933 8.45091 10.7305C8.53773 10.7665 8.70237 10.8276 8.89467 10.7919C9.11711 10.7507 9.30904 10.6113 9.41702 10.4125C9.51037 10.2406 9.5032 10.0652 9.49578 9.97147C9.48811 9.87459 9.46818 9.75855 9.44876 9.64543L9.03727 7.24627L10.7812 5.5477C10.8634 5.4677 10.9477 5.3856 11.0108 5.31179C11.0719 5.24038 11.1809 5.10275 11.2065 4.90894C11.2361 4.68472 11.1629 4.45911 11.0074 4.29493C10.8729 4.15301 10.704 4.10548 10.6126 4.08351C10.5181 4.06079 10.4017 4.0438 10.2882 4.02723L7.87714 3.67483L6.7993 1.49122C6.74853 1.38832 6.69644 1.28273 6.6457 1.19986C6.59662 1.1197 6.4993 0.973576 6.32279 0.889419Z" fill="#E1B000"/>
</svg>